<svg xmlns="http://www.w3.org/2000/svg" xmlns:xlink="http://www.w3.org/1999/xlink" width="100" zoomAndPan="magnify" viewBox="0 0 75 74.999997" height="100" preserveAspectRatio="xMidYMid meet" version="1.0"><defs><clipPath id="5540f90946"><path d="M 22.5 22.5 L 52.5 22.5 L 52.5 52.5 L 22.5 52.5 Z M 22.5 22.5 " clip-rule="nonzero"/></clipPath></defs><path fill="#fdf1e9" d="M 51.617188 37.5 C 51.617188 38.425781 51.527344 39.34375 51.347656 40.253906 C 51.164062 41.164062 50.898438 42.046875 50.542969 42.902344 C 50.1875 43.757812 49.753906 44.574219 49.238281 45.34375 C 48.722656 46.113281 48.136719 46.828125 47.484375 47.484375 C 46.828125 48.136719 46.113281 48.722656 45.34375 49.238281 C 44.574219 49.753906 43.757812 50.1875 42.902344 50.542969 C 42.046875 50.898438 41.164062 51.164062 40.253906 51.347656 C 39.34375 51.527344 38.425781 51.617188 37.5 51.617188 C 36.574219 51.617188 35.65625 51.527344 34.746094 51.347656 C 33.835938 51.164062 32.953125 50.898438 32.097656 50.542969 C 31.242188 50.1875 30.425781 49.753906 29.65625 49.238281 C 28.886719 48.722656 28.171875 48.136719 27.515625 47.484375 C 26.863281 46.828125 26.277344 46.113281 25.761719 45.34375 C 25.246094 44.574219 24.8125 43.757812 24.457031 42.902344 C 24.101562 42.046875 23.835938 41.164062 23.652344 40.253906 C 23.472656 39.34375 23.382812 38.425781 23.382812 37.5 C 23.382812 36.574219 23.472656 35.65625 23.652344 34.746094 C 23.835938 33.835938 24.101562 32.953125 24.457031 32.097656 C 24.8125 31.242188 25.246094 30.425781 25.761719 29.65625 C 26.277344 28.886719 26.863281 28.171875 27.515625 27.515625 C 28.171875 26.863281 28.886719 26.277344 29.65625 25.761719 C 30.425781 25.246094 31.242188 24.8125 32.097656 24.457031 C 32.953125 24.101562 33.835938 23.835938 34.746094 23.652344 C 35.65625 23.472656 36.574219 23.382812 37.5 23.382812 C 38.425781 23.382812 39.34375 23.472656 40.253906 23.652344 C 41.164062 23.835938 42.046875 24.101562 42.902344 24.457031 C 43.757812 24.8125 44.574219 25.246094 45.34375 25.761719 C 46.113281 26.277344 46.828125 26.863281 47.484375 27.515625 C 48.136719 28.171875 48.722656 28.886719 49.238281 29.65625 C 49.753906 30.425781 50.1875 31.242188 50.542969 32.097656 C 50.898438 32.953125 51.164062 33.835938 51.347656 34.746094 C 51.527344 35.65625 51.617188 36.574219 51.617188 37.5 Z M 51.617188 37.5 " fill-opacity="1" fill-rule="nonzero"/><g clip-path="url(#5540f90946)"><path fill="#000000" d="M 37.5 52.5 C 29.210938 52.5 22.5 45.792969 22.5 37.5 C 22.5 29.210938 29.207031 22.5 37.5 22.5 C 45.789062 22.5 52.5 29.207031 52.5 37.5 C 52.5 45.789062 45.792969 52.5 37.5 52.5 Z M 37.5 24.265625 C 30.203125 24.265625 24.265625 30.203125 24.265625 37.5 C 24.265625 44.796875 30.203125 50.734375 37.5 50.734375 C 44.796875 50.734375 50.734375 44.796875 50.734375 37.5 C 50.734375 30.203125 44.796875 24.265625 37.5 24.265625 Z M 37.5 24.265625 " fill-opacity="1" fill-rule="nonzero"/></g><path fill="#00ffd9" d="M 40.894531 42.660156 L 43.421875 45.1875 C 39.4375 48.261719 33.769531 47.777344 30.355469 44.0625 L 32.851562 41.5625 C 34.894531 43.898438 38.332031 44.351562 40.894531 42.660156 Z M 40.894531 42.660156 " fill-opacity="1" fill-rule="nonzero"/><path fill="#ff2e17" d="M 47.207031 35.734375 L 47.207031 37.5 C 47.207031 40.625 45.722656 43.410156 43.421875 45.1875 L 40.894531 42.660156 C 42.089844 41.867188 43 40.671875 43.417969 39.265625 L 38.632812 39.265625 L 38.632812 35.734375 Z M 47.207031 35.734375 " fill-opacity="1" fill-rule="nonzero"/><path fill="#0056d1" d="M 32.851562 41.5625 L 30.355469 44.0625 C 26.988281 40.398438 26.941406 34.8125 30.214844 31.09375 L 32.714844 33.597656 C 30.8125 35.929688 30.863281 39.292969 32.851562 41.5625 Z M 32.851562 41.5625 " fill-opacity="1" fill-rule="nonzero"/><path fill="#ffc933" d="M 43.046875 29.535156 L 41.027344 32.429688 C 38.378906 30.582031 34.757812 31.097656 32.714844 33.597656 L 30.214844 31.09375 C 33.496094 27.367188 39.019531 26.726562 43.046875 29.535156 Z M 43.046875 29.535156 " fill-opacity="1" fill-rule="nonzero"/><path fill="#000000" d="M 47.207031 34.851562 L 38.632812 34.851562 C 38.148438 34.851562 37.734375 35.246094 37.734375 35.734375 L 37.734375 39.265625 C 37.734375 39.753906 38.148438 40.148438 38.632812 40.148438 L 42.082031 40.148438 C 41.160156 41.738281 39.441406 42.792969 37.5 42.792969 C 34.59375 42.792969 32.207031 40.425781 32.207031 37.5 C 32.207031 34.609375 34.554688 32.207031 37.5 32.207031 C 38.589844 32.207031 39.636719 32.535156 40.523438 33.152344 C 40.921875 33.433594 41.472656 33.332031 41.75 32.933594 L 43.769531 30.039062 C 44.050781 29.640625 43.953125 29.089844 43.550781 28.8125 C 41.769531 27.570312 39.679688 26.910156 37.5 26.910156 C 31.691406 26.910156 26.910156 31.632812 26.910156 37.5 C 26.910156 43.410156 31.738281 48.089844 37.503906 48.089844 C 43.367188 48.089844 48.089844 43.335938 48.089844 37.5 L 48.089844 35.734375 C 48.089844 35.246094 47.691406 34.851562 47.207031 34.851562 Z M 41.792969 29.789062 L 40.777344 31.246094 C 38.21875 29.902344 34.953125 30.226562 32.695312 32.332031 L 31.449219 31.085938 C 34.269531 28.425781 38.464844 27.929688 41.792969 29.789062 Z M 30.289062 32.421875 L 31.5625 33.691406 C 30.027344 36.082031 30.070312 39.144531 31.679688 41.488281 L 30.414062 42.753906 C 28.144531 39.699219 28.09375 35.53125 30.289062 32.421875 Z M 31.605469 44.058594 L 32.855469 42.808594 C 35.035156 44.722656 38.171875 45.105469 40.75 43.765625 L 42.046875 45.058594 C 38.734375 47.066406 34.488281 46.648438 31.605469 44.058594 Z M 46.324219 37.5 C 46.324219 39.992188 45.292969 42.320312 43.472656 43.988281 L 42.222656 42.738281 C 43.179688 41.875 43.894531 40.761719 44.265625 39.515625 C 44.433594 38.953125 44.011719 38.382812 43.417969 38.382812 L 39.5 38.382812 L 39.5 36.617188 L 46.324219 36.617188 Z M 46.324219 37.5 " fill-opacity="1" fill-rule="nonzero"/></svg>